<?xml version="1.0" standalone="no"?>
<!DOCTYPE svg PUBLIC "-//W3C//DTD SVG 20010904//EN"
 "http://www.w3.org/TR/2001/REC-SVG-20010904/DTD/svg10.dtd">
<svg version="1.0" xmlns="http://www.w3.org/2000/svg"
 width="48.000000pt" height="48.000000pt" viewBox="0 0 48.000000 48.000000"
 preserveAspectRatio="xMidYMid meet">

<g transform="translate(0.000000,48.000000) scale(0.100000,-0.100000)"
fill="#000000" stroke="none">
<path d="M34 407 c-2 -7 -3 -66 -2 -132 l3 -118 33 27 c29 25 32 33 32 82 0
30 2 54 5 54 4 0 19 -7 36 -16 38 -19 69 -10 69 21 0 18 -14 31 -65 59 -69 38
-102 45 -111 23z"/>
<path d="M223 265 c-124 -105 -183 -162 -183 -176 0 -47 32 -30 180 95 82 69
152 126 155 126 3 0 5 -49 5 -109 0 -60 3 -116 6 -125 8 -21 50 -21 58 0 8 21
6 283 -3 314 -4 14 -13 26 -21 28 -8 1 -97 -68 -197 -153z"/>
</g>
</svg>
