<?xml version="1.0" encoding="UTF-8" standalone="no"?>
<!DOCTYPE svg  PUBLIC '-//W3C//DTD SVG 1.1//EN'  'http://www.w3.org/Graphics/SVG/1.1/DTD/svg11.dtd'>
<!-- Created with Inkscape (http://www.inkscape.org/) -->
<svg id="svg1" xmlns:rdf="http://www.w3.org/1999/02/22-rdf-syntax-ns#" xmlns="http://www.w3.org/2000/svg" height="60.184" width="248.42" version="1.1" xmlns:dc="http://purl.org/dc/elements/1.1/">
 <g id="n" transform="matrix(1.6028 0 0 -1.6028 52.552 7.0866)">
  <path id="path12811" d="m0 0 2.824-3.982v3.979h1.375v-6.207h-1.508l-2.808 3.969v-3.969h-1.377v6.21h1.494" fill="#c03"/>
 </g>
 <g id="t" transform="matrix(1.6028 0 0 -1.6028 69.76 7.0898)">
  <path id="path12803" d="m0 0-0.008-1.339h-1.943l0.008-4.869h-1.438v4.869h-1.941v1.339h5.322" fill="#c03"/>
 </g>
 <g id="t2" transform="matrix(1.6028 0 0 -1.6028 79.987 7.0898)">
  <path id="path12807" d="m0 0v-1.339h-1.943v-4.869h-1.438v4.869h-1.943v1.339h5.324" fill="#c03"/>
 </g>
 <g id="d" transform="matrix(1.6028 0 0 -1.6028 19.496 36.999)">
  <path id="path12799" d="m0 0c0 2.448 1.667 4.848 4.746 4.848 3.081 0 4.693-2.298 4.747-4.722v-0.252c-0.054-2.423-1.666-4.722-4.747-4.722-3.079 0-4.746 2.4-4.746 4.848zm9.421 18.663v-9.855c-1.337 0.774-2.939 1.235-4.792 1.235-6.635 0-10.161-5.165-10.161-10.047 0-4.869 3.526-10.04 10.161-10.04 4.985 0 6.847 2.408 10.323 4.003v24.704h-5.531" fill="#c03"/>
 </g>
 <g id="o" transform="matrix(1.6028 0 0 -1.6028 64.932 44.77)">
  <path id="path12815" d="m0 0c-3.08 0-4.748 2.399-4.748 4.848 0 2.448 1.668 4.847 4.748 4.847 3.081 0 4.749-2.399 4.749-4.847 0-2.449-1.668-4.848-4.749-4.848zm0.006 14.891c-6.57 0-10.285-5.122-10.285-10.047 0-4.911 3.715-10.04 10.285-10.04 6.559 0 10.274 5.129 10.274 10.04 0 4.925-3.715 10.047-10.274 10.047" fill="#c03"/>
 </g>
 <g id="c" transform="matrix(1.6028 0 0 -1.6028 85.531 36.999)">
  <path id="path12787" d="m0 0c0-5.49 3.967-9.802 10.234-9.802h5.786v5.197h-5.266c-3.365 0-5.223 1.996-5.223 4.605 0 2.607 1.858 4.605 5.223 4.605h5.266v5.194h-5.786c-6.267 0-10.234-4.309-10.234-9.799" fill="#c03"/>
 </g>
 <g id="o2" transform="matrix(1.6028 0 0 -1.6028 131.77 44.77)">
  <path id="path12819" d="m0 0c-3.08 0-4.748 2.399-4.748 4.848 0 2.448 1.668 4.847 4.748 4.847s4.748-2.399 4.748-4.847c0-2.449-1.668-4.848-4.748-4.848zm0.006 14.891c-6.571 0-10.286-5.122-10.286-10.047 0-4.911 3.715-10.04 10.286-10.04 6.558 0 10.273 5.129 10.273 10.04 0 4.925-3.715 10.047-10.273 10.047" fill="#c03"/>
 </g>
 <g id="m" transform="matrix(1.6028 0 0 -1.6028 187.21 20.903)">
  <path id="path12791" d="m0 0c-2.12 0-4.094-0.428-6.653-2.153-2.56 1.725-4.535 2.153-6.654 2.153-4.713 0-8.006-3.241-8.006-7.909v-11.936h5.531v11.659c0 1.995 1.217 2.991 3.213 2.991 2.112 0 3.154-1.053 3.154-2.74v-11.91h5.524v11.91c0 1.687 1.043 2.74 3.154 2.74 1.996 0 3.211-0.996 3.211-2.991v-11.659h5.531v11.936c0 4.668-3.291 7.909-8.005 7.909" fill="#c03"/>
 </g>
 <g id="o3" transform="matrix(1.6028 0 0 -1.6028 221.32 44.77)">
  <path id="path12795" d="m0 0c-3.08 0-4.748 2.399-4.748 4.848 0 2.448 1.668 4.847 4.748 4.847s4.748-2.399 4.748-4.847c0-2.449-1.668-4.848-4.748-4.848zm0.006 14.891c-6.571 0-10.286-5.122-10.286-10.047 0-4.911 3.715-10.04 10.286-10.04 6.558 0 10.273 5.129 10.273 10.04 0 4.925-3.715 10.047-10.273 10.047" fill="#c03"/>
 </g>
</svg>
